<svg data-v-fde0c5aa="" xmlns="http://www.w3.org/2000/svg" viewBox="0 0 300 300" class="iconLeft"><!----><defs data-v-fde0c5aa=""><!----></defs><rect data-v-fde0c5aa="" fill="transparent" x="0" y="0" width="300px" height="300px" class="logo-background-square"></rect><defs data-v-fde0c5aa=""><!----></defs><g data-v-fde0c5aa="" id="74fcda8b-dac2-469e-b4bb-ef54ad4b73da" fill="#000000" transform="matrix(2.9876596526124493,0,0,2.9876596526124493,101.02663079447217,124.53020117655345)"><path d="M4.56 13.80Q4.00 13.80 3.61 13.41Q3.22 13.02 3.22 12.46L3.22 12.46L3.22 5.25L1.20 5.25Q0.77 5.25 0.46 4.94Q0.14 4.62 0.14 4.19L0.14 4.19Q0.14 3.74 0.46 3.43Q0.77 3.12 1.20 3.12L1.20 3.12L7.92 3.12Q8.37 3.12 8.68 3.43Q8.99 3.74 8.99 4.19L8.99 4.19Q8.99 4.62 8.68 4.94Q8.37 5.25 7.92 5.25L7.92 5.25L5.91 5.25L5.91 12.46Q5.91 13.02 5.52 13.41Q5.12 13.80 4.56 13.80L4.56 13.80ZM11.55 13.90Q10.29 13.90 9.39 13.38Q8.50 12.87 8.04 11.96Q7.57 11.05 7.57 9.90L7.57 9.90Q7.57 8.72 8.05 7.81Q8.53 6.90 9.44 6.38Q10.35 5.87 11.61 5.87L11.61 5.87Q12.87 5.87 13.78 6.38Q14.69 6.90 15.15 7.81Q15.61 8.72 15.61 9.87L15.61 9.87Q15.61 11.03 15.13 11.95Q14.64 12.87 13.73 13.38Q12.81 13.90 11.55 13.90L11.55 13.90ZM11.59 12.04Q12.29 12.04 12.64 11.47Q12.99 10.89 12.99 9.88L12.99 9.88Q12.99 8.88 12.64 8.30Q12.29 7.73 11.58 7.73L11.58 7.73Q10.88 7.73 10.53 8.29Q10.18 8.86 10.18 9.87L10.18 9.87Q10.18 10.89 10.54 11.47Q10.89 12.04 11.59 12.04L11.59 12.04ZM17.84 13.80Q17.30 13.80 16.92 13.42Q16.53 13.03 16.53 12.50L16.53 12.50L16.53 7.15Q16.53 6.66 16.89 6.31Q17.25 5.95 17.74 5.95L17.74 5.95Q18.24 5.95 18.60 6.31Q18.96 6.66 18.96 7.15L18.96 7.15L18.96 7.35Q19.28 6.72 19.89 6.31Q20.51 5.91 21.42 5.91L21.42 5.91Q22.82 5.91 23.46 6.70Q24.11 7.49 24.11 8.88L24.11 8.88L24.11 12.50Q24.11 13.03 23.72 13.42Q23.34 13.80 22.81 13.80L22.81 13.80Q22.27 13.80 21.89 13.42Q21.50 13.03 21.50 12.50L21.50 12.50L21.50 9.28Q21.50 8.50 21.17 8.19Q20.83 7.88 20.40 7.88L20.40 7.88Q19.88 7.88 19.51 8.25Q19.14 8.62 19.14 9.60L19.14 9.60L19.14 12.50Q19.14 13.03 18.75 13.42Q18.37 13.80 17.84 13.80L17.84 13.80ZM26.89 13.80Q26.33 13.80 25.94 13.41Q25.55 13.02 25.55 12.46L25.55 12.46L25.55 4.31Q25.55 3.74 25.86 3.43Q26.17 3.12 26.74 3.12L26.74 3.12L31.61 3.12Q32.06 3.12 32.38 3.44Q32.69 3.75 32.69 4.20L32.69 4.20Q32.69 4.65 32.38 4.97Q32.06 5.29 31.61 5.29L31.61 5.29L28.24 5.29L28.24 7.73L30.97 7.73Q31.40 7.73 31.71 8.04Q32.02 8.34 32.02 8.78L32.02 8.78Q32.02 9.21 31.71 9.53Q31.40 9.84 30.97 9.84L30.97 9.84L28.24 9.84L28.24 12.46Q28.24 13.02 27.85 13.41Q27.45 13.80 26.89 13.80L26.89 13.80ZM35.03 13.87Q34.31 13.87 33.72 13.60Q33.12 13.33 32.77 12.80Q32.42 12.28 32.42 11.55L32.42 11.55Q32.42 10.07 33.54 9.57Q34.66 9.07 36.37 9.07L36.37 9.07Q36.69 9.07 36.85 9.09L36.85 9.09L37.32 9.10Q37.32 8.62 37.25 8.34Q37.18 8.05 36.95 7.88Q36.72 7.71 36.26 7.71L36.26 7.71Q35.62 7.71 35.31 8.12L35.31 8.12Q34.96 8.60 34.45 8.60L34.45 8.60Q33.99 8.60 33.66 8.27Q33.33 7.94 33.33 7.46L33.33 7.46Q33.33 7.18 33.46 6.94Q33.59 6.69 33.82 6.54L33.82 6.54Q34.34 6.20 34.98 6.03Q35.62 5.87 36.29 5.87L36.29 5.87Q38.02 5.87 38.93 6.61Q39.83 7.35 39.83 9.04L39.83 9.04L39.82 11.03Q39.82 11.55 39.83 11.80L39.83 11.80L39.84 12.59Q39.84 13.08 39.49 13.44Q39.13 13.80 38.63 13.80L38.63 13.80Q38.16 13.80 37.83 13.51Q37.49 13.22 37.42 12.77L37.42 12.77Q36.99 13.37 36.41 13.62Q35.83 13.87 35.03 13.87L35.03 13.87ZM35.88 12.21Q36.57 12.21 36.95 11.75Q37.34 11.28 37.34 10.58L37.34 10.58L37.34 10.47L36.51 10.46Q34.97 10.46 34.97 11.40L34.97 11.40Q34.97 11.77 35.23 11.99Q35.49 12.21 35.88 12.21L35.88 12.21ZM43.82 13.93Q42.56 13.93 41.68 13.57Q40.81 13.20 40.81 12.40L40.81 12.40Q40.81 11.94 41.12 11.60Q41.43 11.26 41.92 11.26L41.92 11.26Q42.20 11.26 42.39 11.38Q42.59 11.49 42.78 11.72L42.78 11.72Q42.99 11.98 43.20 12.10Q43.41 12.21 43.88 12.21L43.88 12.21Q44.95 12.21 44.95 11.54L44.95 11.54Q44.95 11.31 44.79 11.17Q44.63 11.03 44.14 10.93L44.14 10.93L43.19 10.74Q41.87 10.47 41.26 9.94Q40.64 9.41 40.64 8.48L40.64 8.48Q40.64 7.28 41.59 6.57Q42.53 5.87 44.10 5.87L44.10 5.87Q45.25 5.87 46.10 6.23Q46.96 6.59 46.96 7.35L46.96 7.35Q46.96 7.85 46.65 8.16Q46.35 8.46 45.91 8.46L45.91 8.46Q45.40 8.46 45.04 7.99L45.04 7.99Q44.90 7.80 44.69 7.69Q44.48 7.57 44.06 7.57L44.06 7.57Q43.61 7.57 43.35 7.73Q43.09 7.88 43.09 8.18L43.09 8.18Q43.09 8.41 43.29 8.54Q43.48 8.67 43.96 8.76L43.96 8.76L45.05 8.99Q46.31 9.25 46.88 9.79Q47.45 10.32 47.45 11.26L47.45 11.26Q47.45 12.49 46.54 13.21Q45.64 13.93 43.82 13.93L43.82 13.93ZM51.31 13.86Q49.97 13.86 49.41 13.20Q48.85 12.53 48.86 11.13L48.86 11.13L48.87 7.78L48.48 7.78Q48.13 7.78 47.88 7.53Q47.63 7.28 47.63 6.93L47.63 6.93Q47.63 6.57 47.88 6.31Q48.13 6.06 48.48 6.06L48.48 6.06L48.96 6.06L49.01 5.03Q49.04 4.56 49.38 4.23Q49.73 3.91 50.20 3.91L50.20 3.91Q50.69 3.91 51.04 4.26Q51.39 4.61 51.39 5.10L51.39 5.10L51.39 6.06L52.22 6.06Q52.57 6.06 52.82 6.31Q53.07 6.57 53.07 6.92L53.07 6.92Q53.07 7.28 52.82 7.53Q52.57 7.78 52.22 7.78L52.22 7.78L51.45 7.78L51.45 10.91Q51.45 11.48 51.69 11.72Q51.94 11.96 52.44 11.96L52.44 11.96Q52.77 12.03 52.99 12.29Q53.21 12.54 53.21 12.89L53.21 12.89Q53.21 13.19 53.05 13.42Q52.89 13.65 52.64 13.76L52.64 13.76Q52.08 13.86 51.31 13.86L51.31 13.86Z"></path></g><defs data-v-fde0c5aa=""><linearGradient data-v-fde0c5aa="" gradientTransform="rotate(25)" id="8f690cd5-0420-4a6a-9961-981b4fd77289" x1="0%" y1="0%" x2="100%" y2="0%"><stop data-v-fde0c5aa="" offset="0%" stop-color="#51A4FB" stop-opacity="1"></stop><stop data-v-fde0c5aa="" offset="100%" stop-color="#51A4FB" stop-opacity="1"></stop></linearGradient></defs><g data-v-fde0c5aa="" id="61c85b1b-a004-4028-95ef-12e47e6318cd" stroke="none" fill="url(#8f690cd5-0420-4a6a-9961-981b4fd77289)" transform="matrix(1.513903223363084,0,0,1.513903223363084,40,125.77754842619066)"><path d="M16 1c8.271 0 15 6.729 15 15s-6.729 15-15 15S1 24.271 1 16 7.729 1 16 1m0-1C7.163 0 0 7.163 0 16s7.163 16 16 16 16-7.163 16-16S24.837 0 16 0z"></path><path d="M16 7.045L24.955 16 16 24.955 7.045 16 16 7.045m0-1.414L5.631 16 16 26.369 26.369 16 16 5.631z"></path><path d="M16 12.538L19.462 16 16 19.462 12.538 16 16 12.538m0-1.414L11.124 16 16 20.876 20.876 16 16 11.124z"></path></g><!----></svg>